<?xml version="1.0" encoding="UTF-8"?>
<svg width="20px" height="20px" viewBox="0 0 20 20" version="1.1" xmlns="http://www.w3.org/2000/svg" xmlns:xlink="http://www.w3.org/1999/xlink">
    <!-- Generator: Sketch 59 (86127) - https://sketch.com -->
    <title>form_ico_print备份 2</title>
    <desc>Created with Sketch.</desc>
    <g id="页面-1" stroke="none" stroke-width="1" fill="none" fill-rule="evenodd">
        <g id="全网拓扑视图-详情-告警" transform="translate(-1489.000000, -360.000000)" fill-rule="nonzero">
            <g id="编组-2" transform="translate(389.000000, 278.000000)">
                <g id="列表备份-2" transform="translate(0.000000, 62.000000)">
                    <g id="操作按钮" transform="translate(966.000000, 18.000000)">
                        <g id="form_ico_print" transform="translate(132.000000, 0.000000)">
                            <g transform="translate(2.000000, 2.000000)">
                                <rect id="矩形" fill="#000000" opacity="0" x="0" y="0" width="20" height="20"></rect>
                                <path d="M12.8652344,12.1171875 L7.1328125,12.1171875 C6.73242188,12.1171875 6.40625,12.4433594 6.40625,12.84375 C6.40625,13.2441406 6.73242188,13.5703125 7.1328125,13.5703125 L12.8671875,13.5703125 C13.2675781,13.5703125 13.59375,13.2441406 13.59375,12.84375 C13.59375,12.4433594 13.2675781,12.1171875 12.8652344,12.1171875 Z" id="路径" fill="#8598B0"></path>
                                <path d="M17.6627998,4.53736337 L15.4622421,4.53736337 L15.4622421,2.33705108 C15.4622421,1.60026768 14.8619074,1 14.1250418,1 L5.87295036,1 C5.13608477,1 4.53575014,1.60026768 4.53575014,2.33705108 L4.53575014,4.53736337 L2.33720022,4.53736337 C1.60033463,4.53736337 1,5.13763105 1,5.87441445 L1,11.7686817 C1,12.5054651 1.60033463,13.1057328 2.33720022,13.1057328 L3.94746235,13.1057328 L3.94746235,17.6629489 C3.94746235,18.3997323 4.54779699,19 5.28466258,19 L14.7153374,19 C15.452203,19 16.0525376,18.3997323 16.0525376,17.6629489 L16.0525376,13.1057328 L17.6627998,13.1057328 C18.3996654,13.1057328 19,12.5054651 19,11.7686817 L19,5.87441445 C19,5.13763105 18.3996654,4.53736337 17.6627998,4.53736337 Z M6.03156721,2.92728084 C6.03156721,2.68837832 6.22431679,2.49565023 6.46324596,2.49565023 L13.536754,2.49565023 C13.7756832,2.49565023 13.9684328,2.68837832 13.9684328,2.92728084 L13.9684328,4.53736337 L6.03156721,4.53736337 L6.03156721,2.92728084 Z M14.5587284,17.0727192 C14.5587284,17.3116217 14.3659788,17.5043498 14.1270496,17.5043498 L5.87495817,17.5043498 C5.636029,17.5043498 5.44327942,17.3116217 5.44327942,17.0727192 L5.44327942,11.1784519 C5.44327942,10.9395494 5.636029,10.7468213 5.87495817,10.7468213 L14.1270496,10.7468213 C14.3659788,10.7468213 14.5587284,10.9395494 14.5587284,11.1784519 L14.5587284,17.0727192 Z M17.5061907,11.1784519 C17.5061907,11.4173545 17.3134412,11.6100825 17.074512,11.6100825 L16.0525376,11.6100825 L16.0525376,10.5882222 C16.0525376,9.85143877 15.452203,9.25117109 14.7153374,9.25117109 L5.28466258,9.25117109 C4.54779699,9.25117109 3.94746235,9.85143877 3.94746235,10.5882222 L3.94746235,11.6100825 L2.92548801,11.6100825 C2.68655884,11.6100825 2.49380926,11.4173545 2.49380926,11.1784519 L2.49380926,6.46263663 C2.49380926,6.22373411 2.68655884,6.03100602 2.92548801,6.03100602 L17.0725042,6.03100602 C17.3114334,6.03100602 17.5041829,6.22373411 17.5041829,6.46263663 L17.5041829,11.1784519 L17.5061907,11.1784519 Z" id="形状" fill="#8598B0"></path>
                                <path d="M12.8652344,14.4121094 L7.1328125,14.4121094 C6.73242188,14.4121094 6.40625,14.7382813 6.40625,15.1386719 C6.40625,15.5390625 6.73242188,15.8652344 7.1328125,15.8652344 L12.8671875,15.8652344 C13.2675781,15.8652344 13.59375,15.5390625 13.59375,15.1386719 C13.59375,14.7382813 13.2675781,14.4121094 12.8652344,14.4121094 Z" id="路径" fill="#8598B0"></path>
                                <path d="M15.1777344,8.47010197 C15.4677979,8.63757023 15.8251709,8.63757023 16.1152344,8.47010197 C16.4052979,8.30263372 16.5839844,7.99313962 16.5839844,7.65820312 C16.5839844,7.14043617 16.1642513,6.72070313 15.6464844,6.72070313 C15.1287174,6.72070313 14.7089844,7.14043617 14.7089844,7.65820312 C14.7089844,7.99313962 14.8876708,8.30263372 15.1777344,8.47010197 Z" id="路径" fill="#8598B0"></path>
                            </g>
                        </g>
                    </g>
                </g>
            </g>
        </g>
    </g>
</svg>